# xmcd
#
# Track frame offsets:
#	150
#	3425
#	25482
#	43690
#	65850
#	81260
#	98904
#	117025
#	151387
#	178312
#	201902
#	228235
#	253185
#	272937
#
# Disc length: 3668 seconds
#
# Revision: 0
# Processed by: cddbd v1.4PL0 Copyright (c) Steve Scherf et al.
# Submitted via: EasyCDDAExtractor 4.6.0.1
#
DISCID=c70e520e
DTITLE=Pepe Ahlqvist and Rolling Tumbleweed - The Bridge
DYEAR=2001
DGENRE=Blues
TTITLE0=Intro
TTITLE1=Sweet, sweet love
TTITLE2=Hoodoo apple
TTITLE3=The big one
TTITLE4=Greasy Tuesday
TTITLE5=A Blues disease
TTITLE6=Checking up On my baby
TTITLE7=Decoration Day
TTITLE8=Crawlin' Inside
TTITLE9=The bridge
TTITLE10=Long lost son
TTITLE11=She's walking away
TTITLE12=Bearsleep
TTITLE13=Outro
EXTD=
EXTT0=
EXTT1=
EXTT2=
EXTT3=
EXTT4=
EXTT5=
EXTT6=
EXTT7=
EXTT8=
EXTT9=
EXTT10=
EXTT11=
EXTT12=
EXTT13=
PLAYORDER=
